<svg xmlns="http://www.w3.org/2000/svg" viewBox="0 0 1600 1000"><rect width="1600" height="1000" fill="#d9d2c4"/><rect x="0" y="0" width="630" height="1000" fill="#d8d1c4"/><g stroke="#aaa397" stroke-width="3" opacity=".8"><line x1="60" y1="0" x2="60" y2="1000"/><line x1="130" y1="0" x2="130" y2="1000"/><line x1="200" y1="0" x2="200" y2="1000"/><line x1="270" y1="0" x2="270" y2="1000"/><line x1="340" y1="0" x2="340" y2="1000"/><line x1="410" y1="0" x2="410" y2="1000"/><line x1="480" y1="0" x2="480" y2="1000"/><line x1="550" y1="0" x2="550" y2="1000"/></g><rect x="640" y="0" width="320" height="1000" fill="#80634d"/><g stroke="#b39478" stroke-width="2"><line x1="640" y1="30" x2="960" y2="30"/><line x1="640" y1="85" x2="960" y2="85"/><line x1="640" y1="140" x2="960" y2="140"/><line x1="640" y1="195" x2="960" y2="195"/><line x1="640" y1="250" x2="960" y2="250"/><line x1="640" y1="305" x2="960" y2="305"/><line x1="640" y1="360" x2="960" y2="360"/><line x1="640" y1="415" x2="960" y2="415"/><line x1="640" y1="470" x2="960" y2="470"/><line x1="640" y1="525" x2="960" y2="525"/><line x1="640" y1="580" x2="960" y2="580"/><line x1="640" y1="635" x2="960" y2="635"/><line x1="640" y1="690" x2="960" y2="690"/><line x1="640" y1="745" x2="960" y2="745"/><line x1="640" y1="800" x2="960" y2="800"/><line x1="640" y1="855" x2="960" y2="855"/><line x1="640" y1="910" x2="960" y2="910"/><line x1="640" y1="965" x2="960" y2="965"/></g><rect x="960" y="0" width="640" height="1000" fill="#6f8589"/><polygon points="1080,0 1600,0 1600,1000 1300,1000" fill="#eef0ea" opacity=".22"/><circle cx="1370" cy="250" r="115" fill="#6f7d67" opacity=".62"/><circle cx="1240" cy="310" r="80" fill="#6f7d67" opacity=".45"/><text x="70" y="930" fill="#222" font-family="Arial" font-size="26" letter-spacing="6">CASA VERDE / MATERIAL DETAIL</text></svg>