<svg xmlns="http://www.w3.org/2000/svg" viewBox="0 0 1600 1000"><defs><linearGradient id="sky" x2="0" y2="1"><stop stop-color="#9facb2"/><stop offset="1" stop-color="#edf0ea"/></linearGradient><linearGradient id="ground" x2="1"><stop stop-color="#3c474d"/><stop offset="1" stop-color="#5f665a"/></linearGradient></defs><rect width="1600" height="1000" fill="url(#sky)"/><circle cx="1320" cy="180" r="85" fill="#f4dca1" opacity=".75"/><rect y="680" width="1600" height="320" fill="url(#ground)"/><ellipse cx="790" cy="725" rx="650" ry="75" fill="#3b4038" opacity=".16"/><polygon points="250,50 1320,-10 1390,680 210,680" fill="#818d93"/><polygon points="250,50 560,-70 1320,-10 1040,70" fill="#eee9df" opacity=".9"/><rect x="560" y="-20" width="12" height="670" fill="#c7d0d4" opacity=".82"/><rect x="612" y="-20" width="12" height="670" fill="#c7d0d4" opacity=".82"/><rect x="664" y="-20" width="12" height="670" fill="#c7d0d4" opacity=".82"/><rect x="716" y="-20" width="12" height="670" fill="#c7d0d4" opacity=".82"/><rect x="768" y="-20" width="12" height="670" fill="#c7d0d4" opacity=".82"/><rect x="820" y="-20" width="12" height="670" fill="#c7d0d4" opacity=".82"/><rect x="872" y="-20" width="12" height="670" fill="#c7d0d4" opacity=".82"/><rect x="924" y="-20" width="12" height="670" fill="#c7d0d4" opacity=".82"/><rect x="976" y="-20" width="12" height="670" fill="#c7d0d4" opacity=".82"/><rect x="1028" y="-20" width="12" height="670" fill="#c7d0d4" opacity=".82"/><rect x="1080" y="-20" width="12" height="670" fill="#c7d0d4" opacity=".82"/><rect x="1132" y="-20" width="12" height="670" fill="#c7d0d4" opacity=".82"/><rect x="1184" y="-20" width="12" height="670" fill="#c7d0d4" opacity=".82"/><rect x="1236" y="-20" width="12" height="670" fill="#c7d0d4" opacity=".82"/><rect x="370" y="230" width="250" height="300" fill="#7e8a90" opacity=".9"/><rect x="150" y="640" width="1300" height="42" fill="#a99e8e"/><g fill="#3c474d"><circle cx="180" cy="580" r="115"/><circle cx="1370" cy="570" r="145"/><circle cx="1490" cy="610" r="95"/></g><g fill="#d6d0c4" opacity=".8"><rect x="0" y="820" width="1600" height="180"/><path d="M0 840 Q620 720 1600 820 L1600 1000 0 1000Z" fill="#c2b7a6"/></g><text x="70" y="935" fill="#282826" font-family="Arial" font-size="26" letter-spacing="6">NORTHLINE CENTER / HERO</text></svg>